<?xml version="1.0" standalone="no"?>
<!DOCTYPE svg PUBLIC "-//W3C//DTD SVG 1.1//EN" "http://www.w3.org/Graphics/SVG/1.1/DTD/svg11.dtd" >
<svg xmlns="http://www.w3.org/2000/svg">
<metadata></metadata>
<defs>
<font id="heroic_condensedlight" horiz-adv-x="696" >
<font-face units-per-em="2048" ascent="1536" descent="-512" />
<missing-glyph horiz-adv-x="368" />
<glyph horiz-adv-x="0" />
<glyph unicode="&#xd;" horiz-adv-x="0" />
<glyph unicode=" "  horiz-adv-x="368" />
<glyph unicode="&#x09;" horiz-adv-x="368" />
<glyph unicode="&#xa0;" horiz-adv-x="368" />
<glyph unicode="!" horiz-adv-x="344" d="M125 0v113h92v-113h-92zM125 1434h92l-20 -963h-50z" />
<glyph unicode="&#x22;" horiz-adv-x="514" d="M100 1454h99l-27 -385h-43zM315 1454h99l-29 -385h-43z" />
<glyph unicode="#" horiz-adv-x="729" d="M92 618v54h123l25 395h-127v53h129l18 314h55l-18 -314h164l16 314h55l-16 -314h121v-53h-125l-20 -395h124v-54h-129l-16 -311h-55l16 311h-164l-16 -311h-57l18 311h-121zM272 672h164l21 395h-162z" />
<glyph unicode="$" horiz-adv-x="688" d="M141 434v119h66v-123q0 -86 25.5 -128t111.5 -42q82 0 109.5 43t27.5 129v80q0 68 -25.5 107.5t-62.5 65.5t-82 46.5t-81.5 50t-62.5 77.5t-26 130v47q0 100 37 162t139 70v166h54v-166q102 -8 138 -69.5t36 -162.5v-92h-64v92q0 86 -28.5 130t-108.5 44t-108.5 -44 t-28.5 -130v-47q0 -74 24.5 -114.5t62.5 -68.5t82 -47.5t82 -48t62.5 -73.5t24.5 -123v-80q0 -102 -35 -162.5t-139 -68.5v-203h-54v203q-106 8 -141 67.5t-35 163.5z" />
<glyph unicode="%" horiz-adv-x="913" d="M115 1096v151q0 106 32.5 156.5t124.5 50.5t125 -50t33 -157v-151q0 -104 -33 -154.5t-125 -50.5t-124.5 50t-32.5 155zM123 0l606 1434h62l-605 -1434h-63zM174 1096q0 -86 20.5 -119t77.5 -33t78 33t21 119v153q0 86 -21 119t-78 33t-77.5 -33t-20.5 -119v-153z M485 184v152q0 106 33 156.5t125 50.5t125 -50.5t33 -156.5v-152q0 -104 -33 -154t-125 -50t-125 50t-33 154zM545 184q0 -86 20.5 -118.5t77.5 -32.5t77.5 32.5t20.5 118.5v154q0 86 -20.5 118.5t-77.5 32.5t-77.5 -32.5t-20.5 -118.5v-154z" />
<glyph unicode="&#x26;" horiz-adv-x="823" d="M141 221v291q0 86 33 140.5t117 70.5q-84 16 -117 70.5t-33 142.5v268q0 55 10.5 101.5t36 79t67.5 51t107 18.5q127 0 174.5 -69.5t47.5 -180.5v-160h-68v160q0 80 -32.5 134.5t-121.5 54.5q-90 0 -121.5 -51.5t-31.5 -137.5v-276q0 -82 36 -128t134 -46h344v-62h-139 v-497q0 -72 40 -103t99 -31v-61q-59 0 -106.5 22.5t-67.5 79.5q-16 -59 -59.5 -90.5t-129.5 -31.5q-127 0 -173 64.5t-46 176.5zM209 225q0 -84 31.5 -135t121.5 -51t122 50t32 136v467h-137q-104 0 -137 -49t-33 -137v-281z" />
<glyph unicode="'" horiz-adv-x="280" d="M90 1454h98l-26 -385h-43z" />
<glyph unicode="(" horiz-adv-x="493" d="M121 715q0 199 54 396.5t144 383.5h52q-82 -195 -134.5 -388.5t-52.5 -391.5q0 -193 51.5 -386.5t135.5 -389.5h-52q-92 188 -145 383.5t-53 392.5z" />
<glyph unicode=")" horiz-adv-x="493" d="M121 -61q84 197 135 390t51 386q0 199 -52 392t-134 388h51q90 -186 144.5 -384t54.5 -396q0 -197 -53.5 -392.5t-145.5 -383.5h-51z" />
<glyph unicode="*" horiz-adv-x="727" d="M80 1214l26 84l244 -112l-33 268h91l-31 -268l241 112l27 -84l-262 -53l182 -194l-71 -54l-132 234l-131 -234l-71 54l182 194z" />
<glyph unicode="+" horiz-adv-x="790" d="M121 547v53h246v270h57v-270h246v-53h-246v-271h-57v271h-246z" />
<glyph unicode="," horiz-adv-x="286" d="M100 113h95l-50 -293h-45v293z" />
<glyph unicode="-" horiz-adv-x="550" d="M100 543v61h349v-61h-349z" />
<glyph unicode="." horiz-adv-x="294" d="M100 0v113h93v-113h-93z" />
<glyph unicode="/" horiz-adv-x="546" d="M80 -61l321 1556h64l-322 -1556h-63z" />
<glyph unicode="0" d="M127 227v977q0 55 10 101.5t36 79t67.5 51t107.5 18.5q63 0 106.5 -18.5t69 -51t35.5 -78.5t10 -102v-977q0 -111 -46 -179t-175 -68t-175 68.5t-46 178.5zM195 227q0 -84 31.5 -136t121.5 -52t122 52t32 136v977q0 84 -32 136.5t-122 52.5t-121.5 -51.5t-31.5 -137.5 v-977z" />
<glyph unicode="1" horiz-adv-x="499" d="M86 1247v45q88 0 120 33t32 109h51v-1371h125v-63h-318v63h125v1184h-135z" />
<glyph unicode="2" horiz-adv-x="645" d="M106 0v205q0 119 28 201.5t68 147t88 117t88 108t67.5 121t27.5 157.5v147q0 82 -28.5 135.5t-120.5 53.5q-47 0 -76 -14.5t-45.5 -39t-22.5 -59.5t-6 -76v-160h-68v160q0 55 8.5 100.5t33 79t66.5 52t110 18.5t109.5 -18.5t66 -52t33 -78.5t8.5 -101v-143 q0 -100 -28 -173t-67.5 -131.5t-88 -109.5t-88.5 -112.5t-67.5 -140.5t-27.5 -189v-142h375v-63h-443z" />
<glyph unicode="3" horiz-adv-x="673" d="M106 227v183h68v-183q0 -41 7 -75.5t24.5 -59t46.5 -39t74 -14.5q90 0 121.5 51t31.5 137v285q0 82 -30.5 131t-122.5 49h-60v62h60q88 0 115.5 48t27.5 126v282q0 84 -30.5 133.5t-116.5 49.5t-117 -49.5t-31 -133.5v-166h-65v166q0 55 10 99.5t34.5 77t65.5 50 t103 17.5q61 0 103 -17.5t66.5 -50t35 -76.5t10.5 -100v-278q0 -80 -27 -133.5t-94 -75.5q76 -20 103.5 -74.5t27.5 -134.5v-287q0 -111 -46 -179t-175 -68q-66 0 -108 18t-66.5 50t-35 78t-10.5 101z" />
<glyph unicode="4" horiz-adv-x="645" d="M66 342v76l329 1016h86v-1031h99v-61h-99v-342h-67v342h-348zM125 403h289v309.5t1 239t1 191.5v172z" />
<glyph unicode="5" horiz-adv-x="675" d="M117 227v183h67v-183q0 -86 32 -137t122 -51t122 51t32 137v391q0 90 -27 137.5t-111 47.5q-53 0 -94 -24.5t-70 -69.5h-57l33 725h371v-64h-310l-26 -588q70 80 166 80q111 0 151.5 -61.5t40.5 -182.5v-391q0 -111 -46 -179t-175 -68t-175 68.5t-46 178.5z" />
<glyph unicode="6" d="M127 227v977q0 113 47 181.5t174 68.5t174 -68.5t47 -181.5v-160h-67v160q0 86 -33 137.5t-121 51.5t-120.5 -51.5t-32.5 -137.5v-446q35 39 78.5 59.5t91.5 20.5q115 0 159.5 -60.5t44.5 -179.5v-371q0 -113 -47 -180t-174 -67t-174 67.5t-47 179.5zM195 227 q0 -86 31.5 -137t121.5 -51t122 51t32 137v371q0 92 -33 136t-115 44q-104 0 -159 -96v-455z" />
<glyph unicode="7" horiz-adv-x="536" d="M45 1370v64h447v-52q-43 -123 -76 -229t-56.5 -207.5t-38 -202t-23.5 -212t-12 -241.5t-3 -290h-74q0 199 9 372t32.5 335.5t65.5 324.5t110 338h-381z" />
<glyph unicode="8" d="M127 227v267q0 90 24.5 148t106.5 81q-68 23 -93.5 76t-25.5 133v278q0 55 9.5 99.5t33 77t64.5 50t102 17.5t102.5 -17.5t66 -50t33.5 -76.5t9 -100v-278q0 -80 -26.5 -133.5t-94.5 -75.5q82 -23 106.5 -81t24.5 -148v-267q0 -111 -46 -179t-175 -68t-175 68.5 t-46 178.5zM195 242q0 -45 6 -82t23.5 -63.5t47 -42t76.5 -15.5q94 0 124 56.5t30 146.5v260q0 41 -5 76.5t-21.5 61.5t-46.5 40t-81 14t-80.5 -14t-46 -40t-21.5 -61.5t-5 -76.5v-260zM205 940q0 -41 5 -76t20.5 -59.5t43 -38.5t74.5 -14t75 14t43 38.5t20.5 59.5t5.5 76 v256q0 43 -5.5 79t-20.5 62.5t-44 41t-74 14.5t-72.5 -14.5t-43 -41t-21.5 -62.5t-6 -79v-256z" />
<glyph unicode="9" d="M127 227v183h68v-183q0 -86 32.5 -137t120.5 -51t121 51t33 137v469q-35 -41 -79 -60.5t-91 -19.5q-115 0 -160 59.5t-45 180.5v348q0 113 47 181.5t174 68.5t174 -68.5t47 -181.5v-977q0 -113 -47 -180t-174 -67t-174 67.5t-47 179.5zM195 854q0 -92 32.5 -136 t114.5 -44q53 0 94 25.5t66 70.5v434q0 86 -32 137.5t-122 51.5t-121.5 -51.5t-31.5 -137.5v-350z" />
<glyph unicode=":" horiz-adv-x="335" d="M121 0v113h92v-113h-92zM121 668v112h92v-112h-92z" />
<glyph unicode=";" horiz-adv-x="327" d="M121 113h94l-49 -293h-45v293zM121 668v112h92v-112h-92z" />
<glyph unicode="&#x3c;" horiz-adv-x="589" d="M100 717l328 778h61l-327 -778l327 -778h-61z" />
<glyph unicode="=" horiz-adv-x="776" d="M121 391v53h532v-53h-532zM121 702v54h532v-54h-532z" />
<glyph unicode="&#x3e;" horiz-adv-x="589" d="M100 -61l328 778l-328 778h62l327 -778l-327 -778h-62z" />
<glyph unicode="?" horiz-adv-x="675" d="M121 1044v158q0 55 8 101.5t31.5 80t65.5 52t112 18.5q68 0 111 -18.5t65.5 -52t30.5 -80t8 -101.5v-127q0 -90 -13.5 -143t-35 -88t-46 -61.5t-45 -63.5t-36 -94.5t-15.5 -153.5h-53q0 106 13.5 170t33 103.5t42 66.5t42 57.5t32.5 77.5t13 127v129q0 39 -6 74 t-22.5 61.5t-45 41t-73.5 14.5q-47 0 -77 -14.5t-45 -40t-20.5 -60.5t-5.5 -76v-158h-69zM291 0v113h92v-113h-92z" />
<glyph unicode="@" horiz-adv-x="1097" d="M121 244v534q0 98 20.5 183.5t69.5 150t132 101t206 36.5t205 -36.5t131 -101t69.5 -149.5t20.5 -184v-534q0 -96 -19.5 -181.5t-68.5 -150t-131 -101t-207 -36.5q-127 0 -209 36.5t-131 101t-68.5 149.5t-19.5 182zM176 244q0 -86 16.5 -162t59.5 -133.5t114.5 -91 t182.5 -33.5t182.5 33.5t113.5 91t59.5 133.5t17.5 162v534q0 86 -17.5 163t-60.5 133t-115 90t-180 34q-109 0 -180.5 -34t-114.5 -90t-60.5 -133t-17.5 -163v-534zM362 266v105q0 49 15.5 88t51.5 69.5t94.5 56t146.5 50.5v125q0 63 -23.5 103t-97.5 40t-98.5 -40 t-24.5 -103v-39h-57v41q0 84 37.5 138t142.5 54q53 0 87 -15t54.5 -41t27.5 -61.5t7 -76.5v-664h-37l-18 68q-16 -41 -48 -65.5t-83 -24.5q-92 0 -134.5 50t-42.5 142zM418 266q0 -70 29.5 -106.5t99.5 -36.5q66 0 94.5 45t28.5 104v318q-76 -23 -125 -45.5t-77 -48t-39 -56 t-11 -69.5v-105z" />
<glyph unicode="A" horiz-adv-x="636" d="M66 0l215 1434h77l213 -1434h-71l-51 360h-261l-51 -360h-71zM195 422h245l-121 878z" />
<glyph unicode="B" horiz-adv-x="718" d="M147 0v1434h195q139 0 188.5 -55.5t49.5 -166.5v-299q0 -78 -30 -125t-101 -65q80 -16 111.5 -65.5t31.5 -129.5v-297q0 -55 -10.5 -98t-37 -72.5t-73.5 -45t-121 -15.5h-203zM215 63h131q106 0 142 43.5t36 126.5v297q0 76 -36.5 119t-139.5 43h-133v-629zM215 754h119 q102 0 140 41t38 116v295q0 84 -35 124t-137 40h-125v-616z" />
<glyph unicode="C" horiz-adv-x="675" d="M127 227v977q0 55 10 101.5t36 79t68 51t107 18.5q127 0 174 -69.5t47 -180.5v-160h-65v160q0 84 -34 136.5t-122 52.5q-90 0 -121.5 -51.5t-31.5 -137.5v-977q0 -84 31.5 -136t121.5 -52q88 0 122 53t34 135v183h65v-183q0 -111 -47 -179t-174 -68q-129 0 -175 68.5 t-46 178.5z" />
<glyph unicode="D" horiz-adv-x="708" d="M137 0v1434h195q74 0 122 -18.5t76.5 -50.5t40 -78t11.5 -101v-938q0 -55 -11.5 -101.5t-39 -78t-74.5 -50t-121 -18.5h-199zM205 63h129q106 0 143 50.5t37 134.5v938q0 41 -8 74.5t-29.5 58t-56.5 38t-90 13.5h-125v-1307z" />
<glyph unicode="E" horiz-adv-x="614" d="M137 0v1434h381v-64h-313v-616h268v-62h-268v-629h313v-63h-381z" />
<glyph unicode="F" horiz-adv-x="567" d="M137 0v1434h365v-64h-297v-616h256v-62h-256v-692h-68z" />
<glyph unicode="G" d="M127 225v983q0 111 46 178.5t175 67.5q127 0 174 -67.5t47 -178.5v-164h-67v164q0 84 -33 134.5t-121 50.5q-90 0 -121.5 -50.5t-31.5 -134.5v-983q0 -84 31.5 -135t121.5 -51t122 50t32 136v467h-154v62h221v-529q0 -111 -46 -178t-175 -67t-175 67.5t-46 177.5z" />
<glyph unicode="H" horiz-adv-x="718" d="M137 0v1434h68v-680h309v680h68v-1434h-68v692h-309v-692h-68z" />
<glyph unicode="I" horiz-adv-x="342" d="M137 0v1434h68v-1434h-68z" />
<glyph unicode="J" horiz-adv-x="651" d="M86 227v183h68v-183q0 -86 28.5 -137t118.5 -51t117.5 50t27.5 138v1207h68v-1207q0 -57 -8 -103t-31.5 -78t-65.5 -49t-108 -17t-107.5 18t-65.5 50t-33 78t-9 101z" />
<glyph unicode="K" horiz-adv-x="661" d="M137 0v1434h68v-680l309 680h78l-330 -709l344 -725h-78l-323 696v-696h-68z" />
<glyph unicode="L" horiz-adv-x="526" d="M137 0v1434h68v-1371h256v-63h-324z" />
<glyph unicode="M" horiz-adv-x="956" d="M137 0v1434h101l239 -1280h2l240 1280h100v-1434h-65v510q0 76 1 188.5t2 230.5t2 227.5t3 178.5l-252 -1335h-64l-251 1335q2 -72 3 -181.5t2 -227t2 -229t1 -187.5v-510h-66z" />
<glyph unicode="N" horiz-adv-x="763" d="M137 0v1434h76l352 -1278q-2 207 -4 410.5t-2 410.5v457h68v-1434h-74l-354 1276q2 -207 4 -409.5t2 -411.5v-455h-68z" />
<glyph unicode="O" d="M127 227v977q0 55 10 101.5t36 79t67.5 51t107.5 18.5q63 0 106.5 -18.5t69 -51t35.5 -78.5t10 -102v-977q0 -111 -46 -179t-175 -68t-175 68.5t-46 178.5zM195 227q0 -84 31.5 -136t121.5 -52t122 52t32 136v977q0 84 -32 136.5t-122 52.5t-121.5 -51.5t-31.5 -137.5 v-977z" />
<glyph unicode="P" horiz-adv-x="651" d="M137 0v1434h182q74 0 121 -18.5t75 -50.5t39 -78t11 -101v-314q0 -55 -12 -99t-41 -76.5t-77 -50t-120 -17.5h-110v-629h-68zM205 690h108q109 0 147 49t38 133v314q0 41 -8.5 74.5t-29 58t-55 38t-88.5 13.5h-112v-680z" />
<glyph unicode="Q" d="M127 227v977q0 55 10 101.5t36 79t68 51t107 18.5q63 0 106.5 -18.5t69 -51t35.5 -78.5t10 -102v-977q0 -104 -41 -171.5t-151 -73.5q4 -63 34.5 -89t92.5 -26h33l-13 -49h-20q-92 0 -136 39t-49 125q-113 6 -152.5 73.5t-39.5 171.5zM195 227q0 -84 31.5 -136t121.5 -52 t122 52t32 136v977q0 84 -32 136.5t-122 52.5t-121.5 -51.5t-31.5 -137.5v-977z" />
<glyph unicode="R" horiz-adv-x="677" d="M137 0v1434h182q74 0 121 -18.5t75 -50.5t39 -78t11 -101v-314q0 -98 -43 -162.5t-147 -78.5l248 -631h-74q-10 25 -28.5 75t-42 110.5t-49.5 128t-49.5 129t-43 110.5t-27.5 76h-104v-629h-68zM205 690h108q109 0 147 49t38 133v314q0 41 -8.5 74.5t-29 58t-55 38 t-88.5 13.5h-112v-680z" />
<glyph unicode="S" horiz-adv-x="647" d="M106 231v179h68v-179q0 -41 6 -76.5t22.5 -61t45 -40t76.5 -14.5q47 0 75.5 14.5t45 40t22.5 60t6 77.5v172q0 111 -27.5 176.5t-67.5 107.5t-88 70.5t-88 68.5t-68 99.5t-28 161.5v115q0 55 8.5 101.5t32 80t66.5 52t111 18.5t110.5 -18.5t66 -52t32 -80t8.5 -101.5 v-158h-68v158q0 41 -6 76t-22.5 60.5t-45 40t-75.5 14.5t-77 -14.5t-46.5 -40t-21.5 -60.5t-5 -76v-117q0 -92 27.5 -145t67.5 -89t88.5 -66.5t88 -74.5t67.5 -116t28 -188v-175q0 -55 -8.5 -101t-32 -80t-66.5 -52t-110 -18q-68 0 -111 18t-66.5 52t-32 80t-8.5 101z" />
<glyph unicode="T" horiz-adv-x="540" d="M55 1370v64h430v-64h-180v-1370h-67v1370h-183z" />
<glyph unicode="U" horiz-adv-x="690" d="M127 233v1201h70v-1201q0 -43 5 -77.5t21.5 -61t46 -41t76.5 -14.5t77 14.5t46 41t21.5 61t5.5 77.5v1201h67v-1201q0 -55 -8 -102t-32.5 -81t-66.5 -52t-110 -18q-70 0 -113 18t-66.5 52t-31.5 81t-8 102z" />
<glyph unicode="V" horiz-adv-x="636" d="M66 1434h71l182 -1278l181 1278h71l-215 -1434h-73z" />
<glyph unicode="W" horiz-adv-x="1095" d="M86 1434h72l168 -1272l188 1272h70l186 -1272l170 1272h70l-201 -1434h-72l-188 1276l-189 -1276h-71z" />
<glyph unicode="X" horiz-adv-x="641" d="M66 0l219 741l-205 693h72l167 -605l168 605h74l-205 -693l219 -741h-73l-183 651l-182 -651h-71z" />
<glyph unicode="Y" horiz-adv-x="604" d="M55 1434h72l174 -715l176 715h72l-213 -811v-623h-68v623z" />
<glyph unicode="Z" horiz-adv-x="561" d="M86 0v41l324 1329h-320v64h393v-41l-321 -1330h323v-63h-399z" />
<glyph unicode="[" horiz-adv-x="501" d="M162 -246v1741h217v-53h-156v-1635h156v-53h-217z" />
<glyph unicode="\" horiz-adv-x="546" d="M80 1495h63l322 -1556h-64z" />
<glyph unicode="]" horiz-adv-x="501" d="M121 -193h158v1635h-158v53h217v-1741h-217v53z" />
<glyph unicode="^" horiz-adv-x="522" d="M100 1044l133 410h54l133 -410h-51l-109 345l-106 -345h-54z" />
<glyph unicode="_" horiz-adv-x="796" d="M121 0v57h553v-57h-553z" />
<glyph unicode="`" horiz-adv-x="372" d="M100 1376h72l100 -250h-49z" />
<glyph unicode="a" horiz-adv-x="622" d="M96 209v115q0 61 14.5 109t53.5 88t108.5 73t178.5 63v158q0 78 -28 125t-112 47q-45 0 -72.5 -12t-43 -34.5t-20.5 -55.5t-5 -72v-51h-66v53q0 51 8.5 93t32 73t63.5 47t103 16t103.5 -16t63 -47t30.5 -73t8 -93v-815h-37l-20 78q-20 -47 -57 -72.5t-101 -25.5 q-111 0 -158 56t-47 173zM162 209q0 -86 32.5 -129t112.5 -43q74 0 109 49t35 123v397q-94 -25 -151.5 -54.5t-88.5 -64t-40 -74.5t-9 -89v-115z" />
<glyph unicode="b" horiz-adv-x="643" d="M117 0v1454h65v-508q20 41 60.5 69.5t101.5 28.5q109 0 151 -58t42 -179v-596q0 -117 -43 -174t-154 -57q-59 0 -100 27.5t-64 76.5l-20 -84h-39zM182 215q0 -78 39 -128t109 -50q78 0 109.5 45t31.5 131v575q0 104 -29.5 151.5t-107.5 47.5t-115 -51t-37 -139v-582z" />
<glyph unicode="c" horiz-adv-x="622" d="M106 219v584q0 53 9.5 98t34 77t65.5 49t102 17t102.5 -17t65 -49t32.5 -77t9 -98v-111h-65v111q0 86 -29 135t-115 49q-88 0 -116.5 -49t-28.5 -135v-584q0 -84 28.5 -133t116.5 -49q86 0 115 49t29 133v133h65v-133q0 -53 -9 -97t-32.5 -76t-64.5 -49t-103 -17 q-63 0 -104 17t-64.5 49t-33 76t-9.5 97z" />
<glyph unicode="d" horiz-adv-x="643" d="M106 211v596q0 121 42 179t153 58q61 0 100 -28.5t60 -69.5v508h65v-1454h-37l-20 84q-23 -49 -63.5 -76.5t-100.5 -27.5q-111 0 -155 57t-44 174zM172 209q0 -88 34 -130t109 -42q74 0 110 50t36 128v582q0 88 -36 139t-114 51t-108.5 -46t-30.5 -134v-598z" />
<glyph unicode="e" horiz-adv-x="632" d="M106 219v584q0 53 9.5 98t34 77t65.5 49t102 17t102.5 -17t65 -49t32.5 -77t9 -98v-275h-354v-309q0 -86 29.5 -134t115.5 -48t115 49t29 133v133h65v-133q0 -53 -9 -97t-32.5 -76t-64.5 -49t-103 -17q-63 0 -104 17t-64.5 49t-33 76t-9.5 97zM172 584h289v207 q0 90 -27.5 143t-116.5 53q-88 0 -116.5 -49t-28.5 -135v-219z" />
<glyph unicode="f" horiz-adv-x="462" d="M66 967v57h96v236q0 115 37.5 165t148.5 50q16 0 35.5 -3.5t34.5 -9.5v-57q-25 12 -68 12q-72 0 -97.5 -31.5t-25.5 -125.5v-236h166v-57h-166v-967h-65v967h-96z" />
<glyph unicode="g" horiz-adv-x="641" d="M76 -109q0 76 32.5 131.5t112.5 77.5q-57 20 -57 74q0 55 59 76q-72 23 -95.5 83t-23.5 146v324q0 53 9.5 98t33 77t63.5 49t103 17q51 0 95 -16q20 59 56 88t83 29q33 0 59 -10v-54q-31 10 -61 11q-74 0 -105 -78q47 -31 65.5 -85.5t18.5 -125.5v-324q0 -53 -9 -98 t-32.5 -77t-65 -49t-104.5 -17q-51 0 -74.5 -17.5t-23.5 -46.5q0 -59 94 -61h4q133 0 187.5 -59.5t54.5 -162.5v-26q0 -94 -53 -153.5t-187 -59.5q-133 0 -186 57.5t-53 155.5v26zM139 -104v-27q0 -78 40 -119t136 -41q98 0 137.5 43t39.5 117v27q0 78 -40 121.5t-139 43.5 q-98 0 -136 -46t-38 -119zM170 479q0 -86 27.5 -136t115.5 -50t117 51t29 135v324q0 41 -6.5 74.5t-22.5 58.5t-44 38t-73 13q-88 0 -115.5 -50t-27.5 -134v-324z" />
<glyph unicode="h" horiz-adv-x="643" d="M117 0v1454h65v-512q23 47 63 74.5t95 27.5q111 0 154 -57t43 -174v-813h-66v813q0 86 -31.5 130t-109.5 44q-76 0 -112 -50t-36 -128v-809h-65z" />
<glyph unicode="i" horiz-adv-x="307" d="M115 1198v98h78v-98h-78zM121 0v1024h65v-1024h-65z" />
<glyph unicode="j" horiz-adv-x="307" d="M-70 -281q27 -10 68 -10q72 0 97.5 33t25.5 125v1157h65v-1159q0 -113 -37.5 -163t-148.5 -50q-39 0 -70 10v57zM115 1198v98h78v-98h-78z" />
<glyph unicode="k" horiz-adv-x="561" d="M117 0v1454h65v-893l256 463h78l-278 -489l299 -535h-76l-279 506v-506h-65z" />
<glyph unicode="l" horiz-adv-x="299" d="M117 0v1454h65v-1454h-65z" />
<glyph unicode="m" horiz-adv-x="997" d="M117 0v1024h39l20 -86q23 49 64 77.5t100 28.5q74 0 116 -28.5t58 -79.5q23 51 69 79.5t109 28.5q106 0 152.5 -56t46.5 -173v-815h-66v813q0 84 -32.5 129t-110.5 45q-72 0 -108.5 -45t-36.5 -129v-813h-66v813q0 80 -31.5 127t-109.5 47q-72 0 -110 -49t-38 -129v-809 h-65z" />
<glyph unicode="n" horiz-adv-x="643" d="M117 0v1024h39l20 -86q23 49 64 77.5t100 28.5q111 0 154 -57t43 -174v-813h-66v813q0 78 -34 126t-107 48q-74 0 -111 -50t-37 -128v-809h-65z" />
<glyph unicode="o" horiz-adv-x="632" d="M106 219v584q0 53 9.5 98t34 77t65.5 49t102 17t101.5 -17t65 -49t33.5 -77t9 -98v-584q0 -53 -9 -97t-32.5 -76t-63.5 -49t-104 -17q-63 0 -104 17t-64.5 49t-33 76t-9.5 97zM172 219q0 -84 28.5 -133t116.5 -49t116 49t28 133v584q0 86 -27.5 135t-116.5 49 q-88 0 -116.5 -49t-28.5 -135v-584z" />
<glyph unicode="p" horiz-adv-x="643" d="M117 -328v1352h39l20 -84q23 47 64 75.5t100 28.5q111 0 154 -57t43 -174v-598q0 -119 -42 -177t-151 -58q-61 0 -101 28.5t-61 69.5v-406h-65zM182 225q0 -86 37 -137t115 -51t107.5 46t29.5 132v547q0 49 -5 90t-20.5 71.5t-43 47t-72.5 16.5q-74 0 -111 -51t-37 -129 v-582z" />
<glyph unicode="q" horiz-adv-x="643" d="M106 215v598q0 117 43.5 174t153.5 57q59 0 100 -28.5t64 -75.5l20 84h39v-1352h-65v406q-20 -41 -60.5 -69.5t-101.5 -28.5q-109 0 -151 58t-42 177zM172 264q0 -53 5 -95t19.5 -70.5t41 -45t71.5 -16.5q78 0 115 51t37 137v582q0 78 -39 129t-109 51q-78 0 -109.5 -45 t-31.5 -131v-547z" />
<glyph unicode="r" horiz-adv-x="405" d="M117 0v1024h43l18 -84q23 45 64 76t108 31v-66h-7q-81 0 -120 -47q-41 -49 -41 -139v-795h-65z" />
<glyph unicode="s" horiz-adv-x="595" d="M96 209v143h66v-143q0 -86 26.5 -129t110.5 -43q82 0 109.5 43t27.5 129v78q0 68 -25.5 107.5t-62.5 65t-82 46t-82 51.5t-62.5 79t-25.5 130v47q0 109 42 170t161 61q59 0 98 -16t61.5 -46t32 -73t9.5 -96v-121h-64v121q0 86 -28.5 130t-108.5 44q-82 0 -109.5 -44 t-27.5 -130v-47q0 -74 24.5 -116t62.5 -69.5t82 -47t82 -49t62.5 -74.5t24.5 -123v-78q0 -109 -40 -169t-161 -60t-162 60t-41 169z" />
<glyph unicode="t" horiz-adv-x="475" d="M55 967v57h99v272q12 4 32.5 9.5t32.5 9.5v-291h170v-57h-170v-774q0 -90 24.5 -123t96.5 -33q39 0 70 10v-55q-14 -6 -35 -9t-37 -3q-109 0 -146.5 49t-37.5 164v774h-99z" />
<glyph unicode="u" horiz-adv-x="653" d="M117 211v813h65v-813q0 -82 35 -128t109 -46t109.5 49t35.5 127v811h66v-1024h-37l-21 84q-23 -47 -63.5 -75.5t-100.5 -28.5q-111 0 -154.5 57t-43.5 174z" />
<glyph unicode="v" horiz-adv-x="569" d="M55 1024h70l160 -903l159 903h70l-197 -1024h-65z" />
<glyph unicode="w" horiz-adv-x="929" d="M66 1024h67l141 -911q41 229 79 455.5t77 455.5h70q41 -229 78.5 -455.5t76.5 -455.5l142 911h67l-172 -1024h-69q-39 227 -78 452.5t-80 452.5q-39 -227 -78 -452.5t-80 -452.5h-69z" />
<glyph unicode="x" horiz-adv-x="559" d="M45 0l201 516l-191 508h70l154 -438l153 438h72l-193 -508l203 -516h-72l-163 444l-164 -444h-70z" />
<glyph unicode="y" horiz-adv-x="630" d="M55 -279q14 -6 34 -9t36 -3q59 0 92 35t49 106l31 148l-215 1026h70l176 -895l178 895h69l-245 -1180q-20 -98 -65.5 -145t-139.5 -47q-18 0 -37.5 3t-32.5 7v59z" />
<glyph unicode="z" horiz-adv-x="542" d="M86 0v39l299 928h-285v57h357v-41l-299 -928h309v-55h-381z" />
<glyph unicode="{" horiz-adv-x="587" d="M121 598v53h67q59 0 81 25.5t22 73.5q0 78 -16.5 145.5t-37 133t-37 131t-16.5 140.5q0 104 56.5 149.5t185.5 45.5h39v-53h-39q-100 0 -140 -34t-40 -116q0 -72 15 -137t33.5 -129.5t34 -132.5t15.5 -141q0 -49 -17.5 -82t-58.5 -45q41 -16 58.5 -48t17.5 -81 q0 -74 -15.5 -141.5t-34 -132t-33.5 -130t-15 -137.5q0 -82 40 -115t140 -33h39v-53h-39q-129 0 -185.5 45t-56.5 150q0 76 16.5 141.5t37 130t37 132t16.5 145.5q0 49 -21.5 74.5t-81.5 25.5h-67z" />
<glyph unicode="|" horiz-adv-x="382" d="M162 -246v1741h57v-1741h-57z" />
<glyph unicode="}" horiz-adv-x="587" d="M121 -193h41q100 0 139 33t39 115q0 72 -15.5 137.5t-34 130t-33.5 132t-15 141.5q0 49 17 80.5t58 48.5q-41 12 -58 44.5t-17 82.5q0 74 15 141.5t33.5 132t34 130t15.5 136.5q0 82 -39 116t-139 34h-41v53h41q129 0 184 -45t55 -150q0 -76 -16 -141t-36.5 -130.5 t-37 -133.5t-16.5 -145q0 -47 22.5 -73t81.5 -26h66v-53h-66q-59 0 -81.5 -25.5t-22.5 -74.5q0 -78 16.5 -145.5t37 -132t36.5 -130t16 -141.5q0 -104 -55 -149.5t-184 -45.5h-41v53z" />
<glyph unicode="~" horiz-adv-x="663" d="M104 1315q0 70 25 104.5t86 34.5q39 0 63.5 -17.5t43 -37t38 -36.5t50.5 -17q43 0 54 23.5t11 64.5h47q0 -72 -24.5 -106t-85.5 -34q-41 0 -64.5 17.5t-42 37t-37 37t-49.5 17.5q-45 0 -55 -23.5t-10 -64.5h-50z" />
<glyph unicode="&#xa1;" horiz-adv-x="344" d="M125 -410l22 963h50l20 -963h-92zM125 911v113h92v-113h-92z" />
<glyph unicode="&#xa2;" horiz-adv-x="702" d="M141 444v584q0 102 37 167t148 73v166h51v-166q55 -4 90 -22.5t56.5 -50.5t29.5 -74t8 -93v-110h-65v110q0 86 -29 135t-115 49q-88 0 -116.5 -49t-28.5 -135v-584q0 -84 28.5 -133t116.5 -49q86 0 115 49t29 133v134h65v-134q0 -102 -38 -166.5t-146 -72.5v-205h-51v205 q-111 8 -148 71.5t-37 167.5z" />
<glyph unicode="&#xa3;" horiz-adv-x="811" d="M100 0v63q47 0 77 13.5t47.5 38t23.5 59.5t6 78v446h-148v50h148v454q0 55 8 101.5t31.5 80t66.5 52t113 18.5q68 0 110 -18.5t65.5 -52t31.5 -80t8 -101.5v-158h-67v158q0 41 -5.5 76t-20.5 60.5t-45 40t-77 14.5t-76.5 -14.5t-46 -40t-22.5 -60.5t-6 -76v-454h170v-50 h-170v-446q0 -43 6 -78t22.5 -59.5t47 -38t77.5 -13.5h215v-63h-215q-84 0 -127 27.5t-61 78.5q-18 -51 -61.5 -78.5t-125.5 -27.5z" />
<glyph unicode="&#xa4;" horiz-adv-x="651" d="M90 0l96 322q-29 33 -39 78.5t-10 105.5v461q0 59 11.5 105t39.5 79l-84 283h66l74 -248q41 23 104 22q63 0 105 -22l73 248h68l-88 -283q29 -33 40 -79t11 -105v-461q0 -59 -10 -105.5t-39 -78.5l100 -322h-67l-86 289q-41 -23 -107 -23t-106 23l-86 -289h-66zM203 506 q0 -84 28.5 -133t116.5 -49t116 49t28 133v461q0 86 -28 135t-116 49t-116.5 -49t-28.5 -135v-461z" />
<glyph unicode="&#xa5;" d="M100 1434h72l174 -725l176 725h72q-8 -35 -25.5 -99.5t-38 -143.5t-44 -165t-44 -165t-37 -142.5t-24.5 -97.5v-76h188v-47h-188v-181h188v-47h-188v-270h-68v270h-184v47h184v181h-184v47h184v76q-8 35 -25.5 98t-38 142t-43 165t-43 165t-37.5 143.5t-26 99.5z" />
<glyph unicode="&#xa6;" horiz-adv-x="382" d="M162 -246v774h57v-774h-57zM162 721v774h57v-774h-57z" />
<glyph unicode="&#xa7;" horiz-adv-x="677" d="M121 582q0 47 5 93t20.5 86t43 69.5t74.5 41.5q-29 16 -54.5 38t-45 53.5t-30.5 76.5t-11 111v51q0 55 9 101.5t33.5 80t65.5 52t107 18.5t107.5 -18.5t66.5 -52t34 -80t9 -101.5v-137h-68v137q0 86 -28.5 138.5t-120.5 52.5q-90 0 -119 -53.5t-29 -137.5v-55 q0 -90 28 -139.5t68 -80t88 -53t88 -62.5t67.5 -106.5t27.5 -183.5q0 -47 -5 -93t-20.5 -86t-44 -69.5t-75.5 -42.5q29 -16 55.5 -37.5t45.5 -53t30.5 -78t11.5 -109.5v-49q0 -55 -10 -101.5t-35 -80t-67 -52t-105 -18.5q-66 0 -107 18.5t-65.5 52t-33.5 79.5t-9 102v137h67 v-137q0 -92 30 -142.5t118 -50.5q90 0 119.5 50.5t29.5 142.5v53q0 90 -27.5 139t-67.5 80t-88 53.5t-88 62.5t-67.5 106.5t-27.5 183.5zM190 573q0 -74 12.5 -124t34 -83.5t50 -55t59.5 -40.5q51 4 79 29t42 60.5t17 78.5t3 84q0 76 -12 127t-33.5 86t-50.5 57.5t-61 41.5 q-53 -4 -81 -31t-41 -64t-15.5 -81t-2.5 -85z" />
<glyph unicode="&#xa8;" horiz-adv-x="503" d="M106 1198v98h78v-98h-78zM317 1198v98h78v-98h-78z" />
<glyph unicode="&#xa9;" horiz-adv-x="1101" d="M121 449v534q0 98 20.5 183t70.5 149.5t133 101.5t206 37t206 -37t132 -101.5t69.5 -149.5t20.5 -183v-534q0 -96 -19.5 -181.5t-68.5 -150t-132 -101t-208 -36.5q-127 0 -210 36.5t-132 101t-68.5 149.5t-19.5 182zM176 449q0 -86 16.5 -162t59.5 -133.5t115.5 -91 t183.5 -33.5t183.5 33.5t114.5 91t59.5 133t17.5 162.5v534q0 86 -17.5 163t-60.5 133t-116 90t-181 34q-111 0 -182.5 -34t-114.5 -90t-60.5 -133t-17.5 -163v-534zM375 471v490q0 41 8 76.5t27.5 61t53.5 41t87 15.5q51 0 85 -14.5t54.5 -40t28.5 -61t8 -76.5v-105h-57 v105q0 61 -23.5 102t-95.5 41q-76 0 -98.5 -41t-22.5 -104v-490q0 -61 22.5 -103t98.5 -42q72 0 95.5 41t23.5 102v127h57v-127q0 -84 -37 -138.5t-139 -54.5q-53 0 -87 14.5t-53.5 41t-27.5 62.5t-8 77z" />
<glyph unicode="&#xaa;" horiz-adv-x="600" d="M121 770v107q0 49 14.5 88t49 69.5t93 56t144.5 50.5v123q0 63 -20.5 101t-98.5 38q-74 0 -96.5 -37t-22.5 -100v-41h-57v41q0 41 7 75.5t27.5 59t54.5 39t87 14.5q55 0 90 -14.5t53.5 -40t25.5 -60t7 -75.5v-666h-39l-16 66q-16 -39 -50 -64t-85 -25q-92 0 -130 48.5 t-38 146.5zM125 416v47h354v-47h-354zM178 770q0 -68 25.5 -106.5t97.5 -38.5q66 0 93.5 45t27.5 104v320q-76 -23 -124 -44.5t-74.5 -47t-36 -56.5t-9.5 -69v-107z" />
<glyph unicode="&#xab;" horiz-adv-x="782" d="M100 512l219 379h76l-217 -379l217 -379h-76zM387 512l217 379h78l-217 -379l217 -379h-78z" />
<glyph unicode="&#xac;" horiz-adv-x="776" d="M121 692v53h532v-344h-55v291h-477z" />
<glyph unicode="&#xad;" horiz-adv-x="550" d="M100 543v61h349v-61h-349z" />
<glyph unicode="&#xae;" horiz-adv-x="1101" d="M121 449v534q0 98 20.5 183t70.5 149.5t133 101.5t206 37t206 -37t132 -101.5t69.5 -149.5t20.5 -183v-534q0 -96 -19.5 -181.5t-68.5 -150t-132 -101t-208 -36.5q-127 0 -210 36.5t-132 101t-68.5 149.5t-19.5 182zM176 449q0 -86 16.5 -162t59.5 -133.5t115.5 -91 t183.5 -33.5t183.5 33.5t114.5 91t59.5 133t17.5 162.5v534q0 86 -17.5 163t-60.5 133t-116 90t-181 34q-111 0 -182.5 -34t-114.5 -90t-60.5 -133t-17.5 -163v-534zM381 295v848h151q61 0 100.5 -14.5t62 -40t30.5 -62.5t8 -80v-100q0 -78 -34.5 -127t-112.5 -60l168 -364 h-60l-164 360h-94v-360h-55zM436 707h94q88 0 117 36.5t29 102.5v100q0 33 -6 59.5t-22.5 46t-44.5 30t-73 10.5h-94v-385z" />
<glyph unicode="&#xaf;" horiz-adv-x="550" d="M100 1214v54h349v-54h-349z" />
<glyph unicode="&#xb0;" horiz-adv-x="542" d="M100 1233q0 98 34 159.5t136 61.5t136 -61.5t34 -159.5t-34 -159.5t-136 -61.5t-136 61.5t-34 159.5zM154 1233q0 -78 21 -126t95 -48t96.5 48t22.5 126t-22.5 125t-96.5 47t-95 -47t-21 -125z" />
<glyph unicode="&#xb1;" horiz-adv-x="790" d="M121 184v54h549v-54h-549zM121 666v53h246v270h57v-270h246v-53h-246v-271h-57v271h-246z" />
<glyph unicode="&#xb4;" horiz-adv-x="372" d="M100 1126l101 250h71l-122 -250h-50z" />
<glyph unicode="&#xb6;" horiz-adv-x="731" d="M121 633v553q0 55 10 101t38 78t76 50.5t122 18.5h223v-1762h-68v717h-151q-74 0 -122 17.5t-77 49t-40 77t-11 100.5z" />
<glyph unicode="&#xb7;" horiz-adv-x="335" d="M121 516v113h92v-113h-92z" />
<glyph unicode="&#xb8;" horiz-adv-x="468" d="M106 -348l13 47h71q63 0 89 21.5t26 62.5t-25.5 62.5t-91.5 21.5h-24l37 133h43l-23 -90q78 -6 111 -41t33 -88q0 -61 -40 -95t-132 -34h-87z" />
<glyph unicode="&#xba;" horiz-adv-x="595" d="M121 416v47h352v-47h-352zM121 772v483q0 41 7 78t25.5 63.5t53.5 42t90 15.5t90 -15.5t53.5 -42t25.5 -63.5t7 -78v-483q0 -41 -7 -78t-25.5 -63.5t-53.5 -42t-90 -15.5t-90 15.5t-53.5 42t-25.5 63.5t-7 78zM178 772q0 -31 4 -58.5t16.5 -47t36 -31.5t62.5 -12 q76 0 98.5 44t22.5 105v483q0 61 -22.5 104.5t-98.5 43.5q-39 0 -62.5 -11.5t-36 -32t-16.5 -47t-4 -57.5v-483z" />
<glyph unicode="&#xbb;" horiz-adv-x="782" d="M100 133l217 379l-217 379h78l217 -379l-217 -379h-78zM387 133l217 379l-217 379h76l219 -379l-219 -379h-76z" />
<glyph unicode="&#xbc;" horiz-adv-x="501" d="M100 696v39h301v-39h-301zM131 135v37q8 27 28.5 87t44 128t44 128t28.5 87h46v-428h40v-39h-40v-135h-41v135h-150zM170 174h111v340zM172 1346v28q37 0 51.5 13.5t14.5 46.5h32v-564h56v-39h-152v39h55v476h-57z" />
<glyph unicode="&#xbd;" horiz-adv-x="501" d="M100 696v39h301v-39h-301zM154 422v76q0 51 19.5 81.5t78.5 30.5t78.5 -31.5t19.5 -80.5v-56q0 -66 -23.5 -104.5t-53 -73.5t-53 -74.5t-23.5 -107.5v-43h159v-39h-200v82q0 74 23.5 118t53 79.5t53 70.5t23.5 90v58q0 29 -11 51t-46 22t-46 -20.5t-11 -52.5v-76h-41z M172 1346v28q37 0 51.5 13.5t14.5 46.5h32v-564h56v-39h-152v39h55v476h-57z" />
<glyph unicode="&#xbe;" horiz-adv-x="501" d="M100 696v39h301v-39h-301zM131 135v37q8 27 28.5 87t44 128t44 128t28.5 87h46v-428h40v-39h-40v-135h-41v135h-150zM154 934v61h39v-55q0 -35 13 -57.5t48 -22.5q33 0 46 20.5t13 53.5v106q0 31 -9 53.5t-46 22.5h-37v39h37q33 0 41 18.5t8 47.5v104q0 35 -12 56.5 t-43 21.5q-33 0 -46 -19.5t-13 -52.5v-69h-39v69q0 49 20.5 80t77.5 31q55 0 75.5 -31t20.5 -80v-108q0 -37 -9 -56.5t-30 -29.5q23 -14 33 -33t10 -57v-113q0 -51 -20.5 -81t-77.5 -30q-59 0 -79.5 31t-20.5 80zM170 174h111v340z" />
<glyph unicode="&#xbf;" horiz-adv-x="675" d="M121 -51q0 90 14.5 142t34.5 87t45 61.5t45.5 63.5t34.5 94.5t16 155.5h54q0 -106 -13.5 -170t-33 -104.5t-42 -67.5t-42 -57.5t-33 -77.5t-13.5 -127v-127q0 -41 6.5 -76t24 -60.5t46 -41t73.5 -15.5q47 0 76.5 14.5t45 40t20.5 60.5t5 78v158h68v-158q0 -55 -8 -101.5 t-30.5 -80t-65.5 -52t-111 -18.5t-111 18.5t-66.5 52t-31.5 80t-8 101.5v127zM293 911v113h92v-113h-92z" />
<glyph unicode="&#xc0;" horiz-adv-x="636" d="M66 0l215 1434h77l213 -1434h-71l-51 360h-261l-51 -360h-71zM174 1786h72l100 -250h-49zM195 422h245l-121 878z" />
<glyph unicode="&#xc1;" horiz-adv-x="636" d="M66 0l215 1434h77l213 -1434h-71l-51 360h-261l-51 -360h-71zM195 422h245l-121 878zM295 1536l100 250h72l-123 -250h-49z" />
<glyph unicode="&#xc2;" horiz-adv-x="636" d="M66 0l215 1434h77l213 -1434h-71l-51 360h-261l-51 -360h-71zM170 1536l115 250h66l114 -250h-53l-94 186l-96 -186h-52zM195 422h245l-121 878z" />
<glyph unicode="&#xc3;" horiz-adv-x="636" d="M66 0l215 1434h77l213 -1434h-71l-51 360h-261l-51 -360h-71zM107 1556q0 70 24.5 105t90.5 35q39 0 62.5 -16.5t42 -36t37.5 -36t50 -16.5q43 0 55.5 21.5t12.5 62.5h49q0 -72 -25 -105.5t-88 -33.5q-41 0 -64.5 16.5t-42 36t-38 35.5t-49.5 16q-43 0 -54.5 -22.5 t-11.5 -61.5h-51zM195 422h245l-121 878z" />
<glyph unicode="&#xc4;" horiz-adv-x="636" d="M66 0l215 1434h77l213 -1434h-71l-51 360h-261l-51 -360h-71zM175 1536v98h77v-98h-77zM195 422h245l-121 878zM385 1536v98h78v-98h-78z" />
<glyph unicode="&#xc5;" horiz-adv-x="636" d="M66 0l215 1434h77l213 -1434h-71l-51 360h-261l-51 -360h-71zM185 1673q0 72 30.5 114t102.5 42t103.5 -42t31.5 -114q0 -70 -31.5 -110.5t-103.5 -40.5t-102.5 41t-30.5 110zM195 422h245l-121 878zM236 1673q0 -49 19.5 -77.5t62.5 -28.5q45 0 64.5 28.5t19.5 77.5 q0 51 -19.5 81t-64.5 30q-43 0 -62.5 -30t-19.5 -81z" />
<glyph unicode="&#xc6;" horiz-adv-x="940" d="M70 0l364 1434h412v-64h-311v-616h268v-62h-268v-629h311v-63h-379v360h-236l-90 -360h-71zM244 422h223v895z" />
<glyph unicode="&#xc7;" horiz-adv-x="675" d="M127 227v977q0 55 10 101.5t36 79t68 51t107 18.5q127 0 174 -69.5t47 -180.5v-160h-65v160q0 84 -34 136.5t-122 52.5q-90 0 -121.5 -51.5t-31.5 -137.5v-977q0 -84 31.5 -136t121.5 -52q88 0 122 53t34 135v183h65v-183q0 -106 -43 -173.5t-157 -73.5l-19 -70 q80 -6 112 -41t32 -88q0 -61 -40 -95t-132 -34h-86l12 47h71q66 0 91.5 21.5t25.5 62.5t-25.5 62.5t-91.5 21.5h-24l29 113q-57 2 -95.5 21t-61 52t-31.5 77t-9 97z" />
<glyph unicode="&#xc8;" horiz-adv-x="614" d="M137 0v1434h381v-64h-313v-616h268v-62h-268v-629h313v-63h-381zM221 1786h72l100 -250h-49z" />
<glyph unicode="&#xc9;" horiz-adv-x="614" d="M137 0v1434h381v-64h-313v-616h268v-62h-268v-629h313v-63h-381zM303 1536l100 250h72l-123 -250h-49z" />
<glyph unicode="&#xca;" horiz-adv-x="614" d="M137 0v1434h381v-64h-313v-616h268v-62h-268v-629h313v-63h-381zM180 1536l115 250h66l114 -250h-53l-94 186l-96 -186h-52z" />
<glyph unicode="&#xcb;" horiz-adv-x="614" d="M137 0v1434h381v-64h-313v-616h268v-62h-268v-629h313v-63h-381zM183 1536v98h77v-98h-77zM393 1536v98h78v-98h-78z" />
<glyph unicode="&#xcc;" horiz-adv-x="342" d="M23 1786h72l100 -250h-49zM137 0v1434h68v-1434h-68z" />
<glyph unicode="&#xcd;" horiz-adv-x="342" d="M137 0v1434h68v-1434h-68zM146 1536l100 250h72l-123 -250h-49z" />
<glyph unicode="&#xce;" horiz-adv-x="342" d="M26 1536l115 250h66l114 -250h-53l-94 186l-96 -186h-52zM137 0v1434h68v-1434h-68z" />
<glyph unicode="&#xcf;" horiz-adv-x="342" d="M29 1536v98h77v-98h-77zM137 0v1434h68v-1434h-68zM239 1536v98h78v-98h-78z" />
<glyph unicode="&#xd0;" horiz-adv-x="716" d="M31 698v52h110v684h195q74 0 122 -18.5t76.5 -50.5t40 -78t11.5 -101v-938q0 -55 -11.5 -101.5t-39 -78t-74.5 -50t-121 -18.5h-199v698h-110zM209 61h129q59 0 95 17.5t54.5 47.5t24.5 70t6 87v884q0 45 -8 83t-28.5 64.5t-56.5 41t-91 14.5h-125v-620h123v-52h-123 v-637z" />
<glyph unicode="&#xd1;" horiz-adv-x="763" d="M137 0v1434h76l352 -1278q-2 207 -4 410.5t-2 410.5v457h68v-1434h-74l-354 1276q2 -207 4 -409.5t2 -411.5v-455h-68zM170 1556q0 70 24.5 105t90.5 35q39 0 62.5 -16.5t42 -36t37.5 -36t50 -16.5q43 0 55.5 21.5t12.5 62.5h49q0 -72 -25 -105.5t-88 -33.5 q-41 0 -64.5 16.5t-42 36t-38 35.5t-49.5 16q-43 0 -54.5 -22.5t-11.5 -61.5h-51z" />
<glyph unicode="&#xd2;" d="M127 227v977q0 55 10 101.5t36 79t67.5 51t107.5 18.5q63 0 106.5 -18.5t69 -51t35.5 -78.5t10 -102v-977q0 -111 -46 -179t-175 -68t-175 68.5t-46 178.5zM195 227q0 -84 31.5 -136t121.5 -52t122 52t32 136v977q0 84 -32 136.5t-122 52.5t-121.5 -51.5t-31.5 -137.5 v-977zM207 1786h72l100 -250h-49z" />
<glyph unicode="&#xd3;" d="M127 227v977q0 55 10 101.5t36 79t67.5 51t107.5 18.5q63 0 106.5 -18.5t69 -51t35.5 -78.5t10 -102v-977q0 -111 -46 -179t-175 -68t-175 68.5t-46 178.5zM195 227q0 -84 31.5 -136t121.5 -52t122 52t32 136v977q0 84 -32 136.5t-122 52.5t-121.5 -51.5t-31.5 -137.5 v-977zM334 1536l100 250h72l-123 -250h-49z" />
<glyph unicode="&#xd4;" d="M127 227v977q0 55 10 101.5t36 79t67.5 51t107.5 18.5q63 0 106.5 -18.5t69 -51t35.5 -78.5t10 -102v-977q0 -111 -46 -179t-175 -68t-175 68.5t-46 178.5zM195 227q0 -84 31.5 -136t121.5 -52t122 52t32 136v977q0 84 -32 136.5t-122 52.5t-121.5 -51.5t-31.5 -137.5 v-977zM200 1536l115 250h66l114 -250h-53l-94 186l-96 -186h-52z" />
<glyph unicode="&#xd5;" d="M127 227v977q0 55 10 101.5t36 79t67.5 51t107.5 18.5q63 0 106.5 -18.5t69 -51t35.5 -78.5t10 -102v-977q0 -111 -46 -179t-175 -68t-175 68.5t-46 178.5zM135 1556q0 70 24.5 105t90.5 35q39 0 62.5 -16.5t42 -36t37.5 -36t50 -16.5q43 0 55.5 21.5t12.5 62.5h49 q0 -72 -25 -105.5t-88 -33.5q-41 0 -64.5 16.5t-42 36t-38 35.5t-49.5 16q-43 0 -54.5 -22.5t-11.5 -61.5h-51zM195 227q0 -84 31.5 -136t121.5 -52t122 52t32 136v977q0 84 -32 136.5t-122 52.5t-121.5 -51.5t-31.5 -137.5v-977z" />
<glyph unicode="&#xd6;" d="M127 227v977q0 55 10 101.5t36 79t67.5 51t107.5 18.5q63 0 106.5 -18.5t69 -51t35.5 -78.5t10 -102v-977q0 -111 -46 -179t-175 -68t-175 68.5t-46 178.5zM195 227q0 -84 31.5 -136t121.5 -52t122 52t32 136v977q0 84 -32 136.5t-122 52.5t-121.5 -51.5t-31.5 -137.5 v-977zM203 1536v98h77v-98h-77zM413 1536v98h78v-98h-78z" />
<glyph unicode="&#xd7;" horiz-adv-x="745" d="M121 360l211 213l-211 211l39 39l213 -211l211 211l39 -39l-211 -211l211 -213l-39 -38l-211 210l-213 -210z" />
<glyph unicode="&#xd8;" d="M127 227v977q0 55 10 101.5t36 79t68 51t107 18.5q25 0 46.5 -4t39.5 -8l8 53h41q-4 -16 -6 -34.5t-4 -35.5q53 -29 74.5 -86t21.5 -135v-977q0 -111 -46 -179t-175 -68q-27 0 -47 4t-39 8l-8 -53h-39l8 67q-53 29 -74.5 86.5t-21.5 134.5zM195 227q0 -47 8 -84t30 -61 l193 1296q-29 14 -78 15q-90 0 -121.5 -51.5t-31.5 -137.5v-977zM270 53q35 -14 78 -14q90 0 122 52t32 136v977q0 47 -9.5 84t-31.5 64z" />
<glyph unicode="&#xd9;" horiz-adv-x="690" d="M127 233v1201h70v-1201q0 -43 5 -77.5t21.5 -61t46 -41t76.5 -14.5t77 14.5t46 41t21.5 61t5.5 77.5v1201h67v-1201q0 -55 -8 -102t-32.5 -81t-66.5 -52t-110 -18q-70 0 -113 18t-66.5 52t-31.5 81t-8 102zM207 1786h72l100 -250h-49z" />
<glyph unicode="&#xda;" horiz-adv-x="690" d="M127 233v1201h70v-1201q0 -43 5 -77.5t21.5 -61t46 -41t76.5 -14.5t77 14.5t46 41t21.5 61t5.5 77.5v1201h67v-1201q0 -55 -8 -102t-32.5 -81t-66.5 -52t-110 -18q-70 0 -113 18t-66.5 52t-31.5 81t-8 102zM326 1536l100 250h72l-123 -250h-49z" />
<glyph unicode="&#xdb;" horiz-adv-x="690" d="M127 233v1201h70v-1201q0 -43 5 -77.5t21.5 -61t46 -41t76.5 -14.5t77 14.5t46 41t21.5 61t5.5 77.5v1201h67v-1201q0 -55 -8 -102t-32.5 -81t-66.5 -52t-110 -18q-70 0 -113 18t-66.5 52t-31.5 81t-8 102zM196 1536l115 250h66l114 -250h-53l-94 186l-96 -186h-52z" />
<glyph unicode="&#xdc;" horiz-adv-x="690" d="M127 233v1201h70v-1201q0 -43 5 -77.5t21.5 -61t46 -41t76.5 -14.5t77 14.5t46 41t21.5 61t5.5 77.5v1201h67v-1201q0 -55 -8 -102t-32.5 -81t-66.5 -52t-110 -18q-70 0 -113 18t-66.5 52t-31.5 81t-8 102zM201 1536v98h77v-98h-77zM411 1536v98h78v-98h-78z" />
<glyph unicode="&#xdd;" horiz-adv-x="604" d="M55 1434h72l174 -715l176 715h72l-213 -811v-623h-68v623zM277 1536l100 250h72l-123 -250h-49z" />
<glyph unicode="&#xde;" horiz-adv-x="651" d="M137 0v1434h68v-295h114q74 0 121 -18.5t75 -50.5t39 -78t11 -101v-313q0 -55 -11 -100.5t-40 -77t-77 -49t-122 -17.5h-110v-334h-68zM205 395h108q55 0 91 12.5t56.5 37t29 59.5t8.5 80v301q0 92 -35 141t-146 49h-112v-680z" />
<glyph unicode="&#xdf;" horiz-adv-x="632" d="M106 0v1255q0 113 46.5 166.5t156.5 53.5q111 0 157 -53.5t46 -166.5v-229q0 -80 -19.5 -129t-72.5 -74q59 -23 82.5 -74t23.5 -131v-421q0 -115 -45 -166t-157 -51q-16 0 -33 2t-29 6v57q10 -4 26.5 -6t33.5 -2q78 0 108.5 32.5t30.5 123.5v407q0 43 -5 78t-20.5 60.5 t-43 39t-75.5 13.5h-10v61q84 0 111.5 42t27.5 128v233q0 92 -32.5 127t-104.5 35q-74 0 -105.5 -35.5t-31.5 -126.5v-1255h-66z" />
<glyph unicode="&#xe0;" horiz-adv-x="622" d="M96 209v115q0 61 14.5 109t53.5 88t108.5 73t178.5 63v158q0 78 -28 125t-112 47q-45 0 -72.5 -12t-43 -34.5t-20.5 -55.5t-5 -72v-51h-66v53q0 51 8.5 93t32 73t63.5 47t103 16t103.5 -16t63 -47t30.5 -73t8 -93v-815h-37l-20 78q-20 -47 -57 -72.5t-101 -25.5 q-111 0 -158 56t-47 173zM162 209q0 -86 32.5 -129t112.5 -43q74 0 109 49t35 123v397q-94 -25 -151.5 -54.5t-88.5 -64t-40 -74.5t-9 -89v-115zM180 1376h72l100 -250h-49z" />
<glyph unicode="&#xe1;" horiz-adv-x="622" d="M96 209v115q0 61 14.5 109t53.5 88t108.5 73t178.5 63v158q0 78 -28 125t-112 47q-45 0 -72.5 -12t-43 -34.5t-20.5 -55.5t-5 -72v-51h-66v53q0 51 8.5 93t32 73t63.5 47t103 16t103.5 -16t63 -47t30.5 -73t8 -93v-815h-37l-20 78q-20 -47 -57 -72.5t-101 -25.5 q-111 0 -158 56t-47 173zM162 209q0 -86 32.5 -129t112.5 -43q74 0 109 49t35 123v397q-94 -25 -151.5 -54.5t-88.5 -64t-40 -74.5t-9 -89v-115zM286 1126l101 250h71l-122 -250h-50z" />
<glyph unicode="&#xe2;" horiz-adv-x="622" d="M96 209v115q0 61 14.5 109t53.5 88t108.5 73t178.5 63v158q0 78 -28 125t-112 47q-45 0 -72.5 -12t-43 -34.5t-20.5 -55.5t-5 -72v-51h-66v53q0 51 8.5 93t32 73t63.5 47t103 16t103.5 -16t63 -47t30.5 -73t8 -93v-815h-37l-20 78q-20 -47 -57 -72.5t-101 -25.5 q-111 0 -158 56t-47 173zM161 1126l115 250h66l114 -250h-53l-94 187l-96 -187h-52zM162 209q0 -86 32.5 -129t112.5 -43q74 0 109 49t35 123v397q-94 -25 -151.5 -54.5t-88.5 -64t-40 -74.5t-9 -89v-115z" />
<glyph unicode="&#xe3;" horiz-adv-x="622" d="M96 209v115q0 61 14.5 109t53.5 88t108.5 73t178.5 63v158q0 78 -28 125t-112 47q-45 0 -72.5 -12t-43 -34.5t-20.5 -55.5t-5 -72v-51h-66v53q0 51 8.5 93t32 73t63.5 47t103 16t103.5 -16t63 -47t30.5 -73t8 -93v-815h-37l-20 78q-20 -47 -57 -72.5t-101 -25.5 q-111 0 -158 56t-47 173zM100 1167q0 70 25 105t90 35q39 0 62.5 -16.5t42 -36t38 -36t50.5 -16.5q43 0 55 21.5t12 62.5h49q0 -72 -24.5 -105.5t-87.5 -33.5q-41 0 -64.5 16.5t-42 36t-38 35.5t-50.5 16q-43 0 -54 -22.5t-11 -61.5h-52zM162 209q0 -86 32.5 -129t112.5 -43 q74 0 109 49t35 123v397q-94 -25 -151.5 -54.5t-88.5 -64t-40 -74.5t-9 -89v-115z" />
<glyph unicode="&#xe4;" horiz-adv-x="622" d="M96 209v115q0 61 14.5 109t53.5 88t108.5 73t178.5 63v158q0 78 -28 125t-112 47q-45 0 -72.5 -12t-43 -34.5t-20.5 -55.5t-5 -72v-51h-66v53q0 51 8.5 93t32 73t63.5 47t103 16t103.5 -16t63 -47t30.5 -73t8 -93v-815h-37l-20 78q-20 -47 -57 -72.5t-101 -25.5 q-111 0 -158 56t-47 173zM162 209q0 -86 32.5 -129t112.5 -43q74 0 109 49t35 123v397q-94 -25 -151.5 -54.5t-88.5 -64t-40 -74.5t-9 -89v-115zM165 1198v98h78v-98h-78zM376 1198v98h78v-98h-78z" />
<glyph unicode="&#xe5;" horiz-adv-x="622" d="M96 209v115q0 61 14.5 109t53.5 88t108.5 73t178.5 63v158q0 78 -28 125t-112 47q-45 0 -72.5 -12t-43 -34.5t-20.5 -55.5t-5 -72v-51h-66v53q0 51 8.5 93t32 73t63.5 47t103 16t103.5 -16t63 -47t30.5 -73t8 -93v-815h-37l-20 78q-20 -47 -57 -72.5t-101 -25.5 q-111 0 -158 56t-47 173zM162 209q0 -86 32.5 -129t112.5 -43q74 0 109 49t35 123v397q-94 -25 -151.5 -54.5t-88.5 -64t-40 -74.5t-9 -89v-115zM176 1264q0 72 31 113.5t102 41.5q72 0 104 -41.5t32 -113.5q0 -70 -32 -111t-104 -41t-102.5 41t-30.5 111zM228 1264 q0 -49 19 -78t62 -29q45 0 64.5 29t19.5 78q0 51 -19 80.5t-65 29.5q-43 0 -62 -29.5t-19 -80.5z" />
<glyph unicode="&#xe6;" horiz-adv-x="978" d="M96 219v105q0 61 14.5 109t53.5 88t108.5 73t178.5 63v158q0 78 -27 125t-115 47q-86 0 -112.5 -47t-26.5 -127v-51h-66v53q0 51 8.5 93t32 73t62.5 47t100 16q82 0 122 -28.5t56 -77.5q18 49 60.5 77.5t120.5 28.5q63 0 103 -17t62.5 -49t31.5 -77t9 -98v-273h-354v-311 q0 -86 28.5 -134t117.5 -48q86 0 115.5 49t29.5 133v133h63v-133q0 -53 -9 -97t-32.5 -76t-64.5 -49t-102 -17q-80 0 -121 28.5t-58 79.5q-16 -51 -58 -79.5t-120 -28.5q-63 0 -104 17t-64.5 49t-33 76t-9.5 97zM162 219q0 -84 28.5 -133t116.5 -49q86 0 115 49t29 133v387 q-94 -25 -151.5 -54.5t-88.5 -64t-40 -74.5t-9 -89v-105zM518 584h289v219q0 86 -28.5 135t-114.5 49q-88 0 -117 -49t-29 -135v-219z" />
<glyph unicode="&#xe7;" horiz-adv-x="622" d="M106 219v584q0 53 9.5 98t34 77t65.5 49t102 17t102.5 -17t65 -49t32.5 -77t9 -98v-111h-65v111q0 86 -29 135t-115 49q-88 0 -116.5 -49t-28.5 -135v-584q0 -84 28.5 -133t116.5 -49q86 0 115 49t29 133v133h65v-133q0 -102 -37.5 -167.5t-150.5 -71.5l-19 -70 q80 -6 112 -41t32 -88q0 -61 -40 -95t-132 -34h-86l12 47h72q66 0 91.5 21.5t25.5 62.5t-26 62.5t-91 21.5h-25l29 113q-55 2 -92 21t-57.5 50t-29 74t-8.5 94z" />
<glyph unicode="&#xe8;" horiz-adv-x="632" d="M106 219v584q0 53 9.5 98t34 77t65.5 49t102 17t102.5 -17t65 -49t32.5 -77t9 -98v-275h-354v-309q0 -86 29.5 -134t115.5 -48t115 49t29 133v133h65v-133q0 -53 -9 -97t-32.5 -76t-64.5 -49t-103 -17q-63 0 -104 17t-64.5 49t-33 76t-9.5 97zM172 584h289v207 q0 90 -27.5 143t-116.5 53q-88 0 -116.5 -49t-28.5 -135v-219zM227 1376h72l100 -250h-49z" />
<glyph unicode="&#xe9;" horiz-adv-x="632" d="M106 219v584q0 53 9.5 98t34 77t65.5 49t102 17t102.5 -17t65 -49t32.5 -77t9 -98v-275h-354v-309q0 -86 29.5 -134t115.5 -48t115 49t29 133v133h65v-133q0 -53 -9 -97t-32.5 -76t-64.5 -49t-103 -17q-63 0 -104 17t-64.5 49t-33 76t-9.5 97zM172 584h289v207 q0 90 -27.5 143t-116.5 53q-88 0 -116.5 -49t-28.5 -135v-219zM293 1126l101 250h71l-122 -250h-50z" />
<glyph unicode="&#xea;" horiz-adv-x="632" d="M106 219v584q0 53 9.5 98t34 77t65.5 49t102 17t102.5 -17t65 -49t32.5 -77t9 -98v-275h-354v-309q0 -86 29.5 -134t115.5 -48t115 49t29 133v133h65v-133q0 -53 -9 -97t-32.5 -76t-64.5 -49t-103 -17q-63 0 -104 17t-64.5 49t-33 76t-9.5 97zM168 1126l115 250h66 l114 -250h-53l-94 187l-96 -187h-52zM172 584h289v207q0 90 -27.5 143t-116.5 53q-88 0 -116.5 -49t-28.5 -135v-219z" />
<glyph unicode="&#xeb;" horiz-adv-x="632" d="M106 219v584q0 53 9.5 98t34 77t65.5 49t102 17t102.5 -17t65 -49t32.5 -77t9 -98v-275h-354v-309q0 -86 29.5 -134t115.5 -48t115 49t29 133v133h65v-133q0 -53 -9 -97t-32.5 -76t-64.5 -49t-103 -17q-63 0 -104 17t-64.5 49t-33 76t-9.5 97zM169 1198v98h78v-98h-78z M172 584h289v207q0 90 -27.5 143t-116.5 53q-88 0 -116.5 -49t-28.5 -135v-219zM380 1198v98h78v-98h-78z" />
<glyph unicode="&#xec;" horiz-adv-x="299" d="M4 1376h72l100 -250h-49zM117 0v1024h65v-1024h-65z" />
<glyph unicode="&#xed;" horiz-adv-x="299" d="M117 0v1024h65v-1024h-65zM127 1126l101 250h71l-122 -250h-50z" />
<glyph unicode="&#xee;" horiz-adv-x="299" d="M4 1126l115 250h66l114 -250h-53l-94 187l-96 -187h-52zM117 0v1024h65v-1024h-65z" />
<glyph unicode="&#xef;" horiz-adv-x="299" d="M8 1198v98h78v-98h-78zM117 0v1024h65v-1024h-65zM219 1198v98h78v-98h-78z" />
<glyph unicode="&#xf0;" horiz-adv-x="643" d="M106 227v578q0 119 43.5 179t151.5 60q41 0 83 -16t77 -61q-2 66 -21.5 149.5t-60.5 167.5l-109 -35l-16 45l102 33q-41 70 -92 127h68q23 -27 43 -53.5t37 -54.5l112 36l17 -43l-107 -34q51 -100 71.5 -209t20.5 -219v-650q0 -113 -44 -180t-165 -67t-166 67.5 t-45 179.5zM172 227q0 -86 30.5 -138t114.5 -52t114 52t30 138v652q-25 47 -64 77.5t-86 30.5q-76 0 -107.5 -45t-31.5 -137v-578z" />
<glyph unicode="&#xf1;" horiz-adv-x="647" d="M116 1167q0 70 25 105t90 35q39 0 62.5 -16.5t42 -36t38 -36t50.5 -16.5q43 0 55 21.5t12 62.5h49q0 -72 -24.5 -105.5t-87.5 -33.5q-41 0 -64.5 16.5t-42 36t-38 35.5t-50.5 16q-43 0 -54 -22.5t-11 -61.5h-52zM121 0v1024h39l20 -86q23 49 64 77.5t100 28.5 q111 0 154 -57t43 -174v-813h-66v813q0 78 -34 126t-107 48q-74 0 -111 -50t-37 -128v-809h-65z" />
<glyph unicode="&#xf2;" horiz-adv-x="632" d="M106 219v584q0 53 9.5 98t34 77t65.5 49t102 17t101.5 -17t65 -49t33.5 -77t9 -98v-584q0 -53 -9 -97t-32.5 -76t-63.5 -49t-104 -17q-63 0 -104 17t-64.5 49t-33 76t-9.5 97zM172 219q0 -84 28.5 -133t116.5 -49t116 49t28 133v584q0 86 -27.5 135t-116.5 49 q-88 0 -116.5 -49t-28.5 -135v-584zM194 1376h72l100 -250h-49z" />
<glyph unicode="&#xf3;" horiz-adv-x="632" d="M106 219v584q0 53 9.5 98t34 77t65.5 49t102 17t101.5 -17t65 -49t33.5 -77t9 -98v-584q0 -53 -9 -97t-32.5 -76t-63.5 -49t-104 -17q-63 0 -104 17t-64.5 49t-33 76t-9.5 97zM172 219q0 -84 28.5 -133t116.5 -49t116 49t28 133v584q0 86 -27.5 135t-116.5 49 q-88 0 -116.5 -49t-28.5 -135v-584zM293 1126l101 250h71l-122 -250h-50z" />
<glyph unicode="&#xf4;" horiz-adv-x="632" d="M106 219v584q0 53 9.5 98t34 77t65.5 49t102 17t101.5 -17t65 -49t33.5 -77t9 -98v-584q0 -53 -9 -97t-32.5 -76t-63.5 -49t-104 -17q-63 0 -104 17t-64.5 49t-33 76t-9.5 97zM168 1126l115 250h66l114 -250h-53l-94 187l-96 -187h-52zM172 219q0 -84 28.5 -133 t116.5 -49t116 49t28 133v584q0 86 -27.5 135t-116.5 49q-88 0 -116.5 -49t-28.5 -135v-584z" />
<glyph unicode="&#xf5;" horiz-adv-x="636" d="M106 1167q0 70 25 105t90 35q39 0 62.5 -16.5t42 -36t38 -36t50.5 -16.5q43 0 55 21.5t12 62.5h49q0 -72 -24.5 -105.5t-87.5 -33.5q-41 0 -64.5 16.5t-42 36t-38 35.5t-50.5 16q-43 0 -54 -22.5t-11 -61.5h-52zM110 219v584q0 53 9.5 98t34 77t65.5 49t102 17t101.5 -17 t65 -49t33.5 -77t9 -98v-584q0 -53 -9 -97t-32.5 -76t-63.5 -49t-104 -17q-63 0 -104 17t-64.5 49t-33 76t-9.5 97zM176 219q0 -84 28.5 -133t116.5 -49t116 49t28 133v584q0 86 -27.5 135t-116.5 49q-88 0 -116.5 -49t-28.5 -135v-584z" />
<glyph unicode="&#xf6;" horiz-adv-x="632" d="M106 219v584q0 53 9.5 98t34 77t65.5 49t102 17t101.5 -17t65 -49t33.5 -77t9 -98v-584q0 -53 -9 -97t-32.5 -76t-63.5 -49t-104 -17q-63 0 -104 17t-64.5 49t-33 76t-9.5 97zM172 219q0 -84 28.5 -133t116.5 -49t116 49t28 133v584q0 86 -27.5 135t-116.5 49 q-88 0 -116.5 -49t-28.5 -135v-584zM172 1198v98h78v-98h-78zM383 1198v98h78v-98h-78z" />
<glyph unicode="&#xf7;" horiz-adv-x="837" d="M121 547v53h594v-53h-594zM373 262v113h92v-113h-92zM373 770v113h92v-113h-92z" />
<glyph unicode="&#xf8;" horiz-adv-x="632" d="M106 219v584q0 53 9.5 98t34 77t65.5 49t102 17q47 0 86 -14l13 55h43l-17 -73q47 -29 65.5 -83.5t18.5 -125.5v-584q0 -53 -9 -97t-32.5 -76t-63.5 -49t-104 -17q-57 0 -88 14l-12 -55h-41l14 71q-47 29 -65.5 83t-18.5 126zM172 219q0 -45 7 -80t26 -59l188 891 q-33 16 -76 16q-88 0 -116.5 -49t-28.5 -135v-584zM242 51q26 -14 75 -14q88 0 116 49t28 133v584q0 45 -7.5 80t-25.5 59z" />
<glyph unicode="&#xf9;" horiz-adv-x="653" d="M117 211v813h65v-813q0 -82 35 -128t109 -46t109.5 49t35.5 127v811h66v-1024h-37l-21 84q-23 -47 -63.5 -75.5t-100.5 -28.5q-111 0 -154.5 57t-43.5 174zM239 1376h72l100 -250h-49z" />
<glyph unicode="&#xfa;" horiz-adv-x="653" d="M117 211v813h65v-813q0 -82 35 -128t109 -46t109.5 49t35.5 127v811h66v-1024h-37l-21 84q-23 -47 -63.5 -75.5t-100.5 -28.5q-111 0 -154.5 57t-43.5 174zM301 1126l101 250h71l-122 -250h-50z" />
<glyph unicode="&#xfb;" horiz-adv-x="653" d="M117 211v813h65v-813q0 -82 35 -128t109 -46t109.5 49t35.5 127v811h66v-1024h-37l-21 84q-23 -47 -63.5 -75.5t-100.5 -28.5q-111 0 -154.5 57t-43.5 174zM178 1126l115 250h66l114 -250h-53l-94 187l-96 -187h-52z" />
<glyph unicode="&#xfc;" horiz-adv-x="653" d="M117 211v813h65v-813q0 -82 35 -128t109 -46t109.5 49t35.5 127v811h66v-1024h-37l-21 84q-23 -47 -63.5 -75.5t-100.5 -28.5q-111 0 -154.5 57t-43.5 174zM182 1198v98h78v-98h-78zM393 1198v98h78v-98h-78z" />
<glyph unicode="&#xfd;" horiz-adv-x="630" d="M55 -279q14 -6 34 -9t36 -3q59 0 92 35t49 106l31 148l-215 1026h70l176 -895l178 895h69l-245 -1180q-20 -98 -65.5 -145t-139.5 -47q-18 0 -37.5 3t-32.5 7v59zM309 1126l101 250h71l-122 -250h-50z" />
<glyph unicode="&#xfe;" horiz-adv-x="643" d="M117 -328v1782h65v-504q20 41 60.5 70t101.5 29q109 0 151 -58.5t42 -177.5v-598q0 -119 -44 -177t-149 -58q-61 0 -101 28.5t-61 69.5v-406h-65zM182 248q0 -96 33 -153.5t119 -57.5q80 0 108.5 44t28.5 134v573q0 96 -25.5 149.5t-111.5 53.5q-78 0 -115 -49t-37 -133 v-561z" />
<glyph unicode="&#xff;" horiz-adv-x="630" d="M55 -279q14 -6 34 -9t36 -3q59 0 92 35t49 106l31 148l-215 1026h70l176 -895l178 895h69l-245 -1180q-20 -98 -65.5 -145t-139.5 -47q-18 0 -37.5 3t-32.5 7v59zM182 1198v98h78v-98h-78zM393 1198v98h78v-98h-78z" />
<glyph unicode="&#x152;" horiz-adv-x="978" d="M127 227v977q0 55 10 101.5t36 79t68 51t107 18.5q57 0 94 -17.5t60 -45.5v43h381v-64h-314v-616h269v-62h-269v-629h314v-63h-381v41q-23 -29 -59.5 -45t-94.5 -16q-129 0 -175 68.5t-46 178.5zM195 227q0 -84 31.5 -136t121.5 -52t122 52t32 136v977q0 84 -32 136.5 t-122 52.5t-121.5 -51.5t-31.5 -137.5v-977z" />
<glyph unicode="&#x153;" horiz-adv-x="987" d="M106 219v584q0 53 9.5 98t34 77t65.5 49t102 17q76 0 117 -28.5t60 -77.5q20 51 61 78.5t117 27.5q61 0 102 -17t64.5 -49t33 -77t9.5 -98v-275h-355v-309q0 -86 30 -134t116 -48t114.5 49t28.5 133v133h66v-133q0 -53 -9.5 -97t-33 -76t-64.5 -49t-102 -17 q-74 0 -116 27.5t-60 74.5q-18 -47 -60.5 -74.5t-118.5 -27.5q-63 0 -104 17t-64.5 49t-33 76t-9.5 97zM172 219q0 -84 28.5 -133t116.5 -49t116 49t28 133v584q0 86 -27.5 135t-116.5 49q-88 0 -116.5 -49t-28.5 -135v-584zM526 584h289v207q0 90 -27.5 143t-115.5 53 t-117 -49t-29 -135v-219z" />
<glyph unicode="&#x178;" horiz-adv-x="604" d="M55 1434h72l174 -715l176 715h72l-213 -811v-623h-68v623zM158 1536v98h77v-98h-77zM368 1536v98h78v-98h-78z" />
<glyph unicode="&#x2c6;" horiz-adv-x="495" d="M100 1126l115 250h66l114 -250h-53l-94 187l-96 -187h-52z" />
<glyph unicode="&#x2dc;" horiz-adv-x="626" d="M100 1167q0 70 25 105t90 35q39 0 62.5 -16.5t42 -36t38 -36t50.5 -16.5q43 0 55 21.5t12 62.5h49q0 -72 -24.5 -105.5t-87.5 -33.5q-41 0 -64.5 16.5t-42 36t-38 35.5t-50.5 16q-43 0 -54 -22.5t-11 -61.5h-52z" />
<glyph unicode="&#x2000;" horiz-adv-x="914" />
<glyph unicode="&#x2001;" horiz-adv-x="1829" />
<glyph unicode="&#x2002;" horiz-adv-x="914" />
<glyph unicode="&#x2003;" horiz-adv-x="1829" />
<glyph unicode="&#x2004;" horiz-adv-x="609" />
<glyph unicode="&#x2005;" horiz-adv-x="457" />
<glyph unicode="&#x2006;" horiz-adv-x="304" />
<glyph unicode="&#x2007;" horiz-adv-x="304" />
<glyph unicode="&#x2008;" horiz-adv-x="228" />
<glyph unicode="&#x2009;" horiz-adv-x="365" />
<glyph unicode="&#x200a;" horiz-adv-x="101" />
<glyph unicode="&#x2010;" horiz-adv-x="550" d="M100 543v61h349v-61h-349z" />
<glyph unicode="&#x2011;" horiz-adv-x="550" d="M100 543v61h349v-61h-349z" />
<glyph unicode="&#x2012;" horiz-adv-x="550" d="M100 543v61h349v-61h-349z" />
<glyph unicode="&#x2013;" horiz-adv-x="755" d="M100 543v61h553v-61h-553z" />
<glyph unicode="&#x2014;" horiz-adv-x="1083" d="M100 545v57h881v-57h-881z" />
<glyph unicode="&#x2018;" horiz-adv-x="294" d="M96 1454h99v-385h-41z" />
<glyph unicode="&#x2019;" horiz-adv-x="288" d="M100 1069v385h99l-58 -385h-41z" />
<glyph unicode="&#x201a;" horiz-adv-x="335" d="M121 -182v383h98l-57 -383h-41z" />
<glyph unicode="&#x201c;" horiz-adv-x="509" d="M100 1454h99v-385h-41zM311 1454h97v-385h-41z" />
<glyph unicode="&#x201d;" horiz-adv-x="509" d="M100 1069v385h99l-58 -385h-41zM311 1069v385h97l-56 -385h-41z" />
<glyph unicode="&#x201e;" horiz-adv-x="542" d="M117 -182v383h98l-57 -383h-41zM328 -182v383h96l-55 -383h-41z" />
<glyph unicode="&#x2022;" horiz-adv-x="550" d="M100 580q0 72 51.5 123t122.5 51q72 0 123.5 -51.5t51.5 -122.5q0 -72 -51.5 -123t-123.5 -51t-123 51t-51 123z" />
<glyph unicode="&#x2026;" horiz-adv-x="831" d="M121 0v113h92v-113h-92zM369 0v113h92v-113h-92zM616 0v113h93v-113h-93z" />
<glyph unicode="&#x202f;" horiz-adv-x="365" />
<glyph unicode="&#x2039;" horiz-adv-x="497" d="M100 512l219 379h76l-217 -379l217 -379h-76z" />
<glyph unicode="&#x203a;" horiz-adv-x="497" d="M100 133l217 379l-217 379h78l217 -379l-217 -379h-78z" />
<glyph unicode="&#x205f;" horiz-adv-x="457" />
<glyph unicode="&#x20ac;" horiz-adv-x="765" d="M80 584v47h102v188h-102v47h102v338q0 55 10.5 101.5t36 79t67.5 51t107 18.5q127 0 174.5 -69.5t47.5 -180.5v-160h-68v160q0 84 -31.5 136.5t-122.5 52.5q-90 0 -121.5 -51.5t-31.5 -137.5v-338h287l-13 -47h-274v-188h229q-4 -8 -7 -23.5t-5 -23.5h-217v-357 q0 -84 31.5 -136t121.5 -52t122 51t32 137v183h68v-183q0 -111 -47.5 -179t-174.5 -68q-129 0 -175 68.5t-46 178.5v357h-102z" />
<glyph unicode="&#x2122;" horiz-adv-x="733" d="M100 1399v35h201v-35h-80v-375h-39v375h-82zM360 1024v410h39l86 -250l88 250h39v-410h-39v315l-71 -213h-31l-72 213v-315h-39z" />
<glyph unicode="&#x25fc;" horiz-adv-x="1024" d="M0 0v1024h1024v-1024h-1024z" />
</font>
</defs>
</svg>
